{"title":"The Simpsons Season 23  Complete 720p HDTV x264","uid":10173764,"size":1954433598,"categoryP":"video","categoryS":"hd___tv_shows","magnet":"?xt=urn:btih:2a3a20e32f473b7e27265dc3d1c033f6ad1b3068&amp;dn=The+Simpsons+Season+23++Complete+720p+HDTV+x264&amp;tr=udp%3A%2F%2Ftracker.openbittorrent.com%3A80&amp;tr=udp%3A%2F%2Fopen.demonii.com%3A1337&amp;tr=udp%3A%2F%2Ftracker.coppersurfer.tk%3A6969&amp;tr=udp%3A%2F%2Fexodus.desync.com%3A6969","seeders":35,"leechers":13,"uploader":"Anon_up","files":22,"time":1400441299,"description":"The Simpsons Season 23 720p HDTV x264 85mb (Size: 1.82 GB)\n\n  \t\tS23E01- The Falcon and the D'ohman.mkv \t85.54 MB\n  \t\tS23E02- Bart Stops to Smell the Roosevelts.mkv \t84.83 MB\n  \t\tS23E03- Treehouse of Horror XXII.mkv \t86.32 MB\n  \t\tS23E04- Replaceable You.mkv \t84.29 MB\n  \t\tS23E05- The Food Wife.mkv \t86.33 MB\n  \t\tS23E06- The Book Job.mkv \t86.26 MB\n  \t\tS23E07- The Man in the Blue Flannel Pants.mkv \t83.62 MB\n  \t\tS23E08- The Ten-Per-Cent Solution.mkv \t83.65 MB\n  \t\tS23E09- Holidays of Future Passed.mkv \t84.67 MB\n  \t\tS23E10- Politically Inept, with Homer Simpson.mkv \n  \t\tS23E11- The D'oh-cial Network.mkv \t84.46 MB\n  \t\tS23E12- Moe Goes from Rags to Riches.mkv \t84.24 MB\n  \t\tS23E13- The Daughter Also Rises.mkv \t84.35 MB\n  \t\tS23E14- At Long Last Leave.mkv \t82.37 MB\n  \t\tS23E15- Exit Through the Kwik-E-Mart.mkv \t83.7 MB\n  \t\tS23E16- How I Wet Your Mother.mkv \t84.83 MB\n  \t\tS23E17- Them, Robot.mkv \t84.59 MB\n  \t\tS23E18- Beware My Cheating Bart.mkv \t84.25 MB\n  \t\tS23E19- A Totally Fun Thing That Bart Will Never Do\n  \t\tS23E20- The Spy Who Learned Me.mkv \t85.84 MB\n  \t\tS23E21- Ned 'N Edna's Blend.mkv \t83.12 MB\n  \t\tS23E22- Lisa Goes Gaga.mkv \t85.63 MB\n\nGeneral\nFormat : Matroska\nFormat version : Version 4 / Version 2\nFile size ~ 85 MiB\nDuration ~ 21mn\nOverall bit rate mode : Variable\nOverall bit rate ~ 550 Kbps\n\nVideo\nID : 1\nFormat : AVC\nFormat/Info : Advanced Video Codec\nFormat profile : &lt;a class=&quot;__cf_email__&quot; href=&quot;/cdn-cgi/l/email-protection&quot; data-cfemail=&quot;521a3b353a121e667c62&quot;&gt;[email&amp;#160;protected]&lt;/a&gt;&lt;script data-cfhash='f9e31' type=&quot;text/javascript&quot;&gt;\n/* &lt;![CDATA[ */!function(){try{var t=&quot;currentScript&quot;in document?document.currentScript:function(){for(var t=document.getElementsByTagName(&quot;script&quot;),e=t.length;e--;)if(t[e].getAttribute(&quot;data-cfhash&quot;))return t[e]}();if(t&amp;&amp;t.previousSibling){var e,r,n,i,c=t.previousSibling,a=c.getAttribute(&quot;data-cfemail&quot;);if(a){for(e=&quot;&quot;,r=parseInt(a.substr(0,2),16),n=2;a.length-n;n+=2)i=parseInt(a.substr(n,2),16)^r,e+=String.fromCharCode(i);e=document.createTextNode(e),c.parentNode.replaceChild(e,c)}t.parentNode.removeChild(t);}}catch(u){}}()/* ]]&gt; */&lt;/script&gt;\nFormat settings, CABAC : Yes\nFormat settings, ReFrames : 8 frames\nCodec ID : V_MPEG4/ISO/AVC\nDuration : 21mn 49s\nBit rate : 500 Kbps\nWidth : 1 280 pixels\nHeight : 720 pixels\nDisplay aspect ratio : 16:9\nFrame rate mode : Constant\nFrame rate : 23.976 fps\nColor space : YUV\nChroma subsampling : 4:2:0\nBit depth : 8 bits\nScan type : Progressive\nBits/(Pixel*Frame) : 0.023\nStream size : 76.3 MiB (89%)\nWriting library : x264\nColor primaries : BT.709\nTransfer characteristics : BT.709\nMatrix coefficients : BT.709\n\nAudio\nID : 2\nFormat : Vorbis\nFormat settings, Floor : 1\nCodec ID : A_VORBIS\nDuration : 21mn 49s\nBit rate mode : Variable\nBit rate : 48.0 Kbps\nChannel(s) : 2 channels\nSampling rate : 48.0 KHz\nCompression mode : Lossy\nStream size : 7.49 MiB (9%)\n\nText\nID : 3\nFormat : UTF-8\nCodec ID : S_TEXT/UTF8\nCodec ID/Info : UTF-8 Plain Text\nDefault : Yes\nForced : No\n","torrent":{"xt":"urn:btih:2a3a20e32f473b7e27265dc3d1c033f6ad1b3068","amp;dn":"The+Simpsons+Season+23++Complete+720p+HDTV+x264","amp;tr":["udp%3A%2F%2Ftracker.openbittorrent.com%3A80","udp%3A%2F%2Fopen.demonii.com%3A1337","udp%3A%2F%2Ftracker.coppersurfer.tk%3A6969","udp%3A%2F%2Fexodus.desync.com%3A6969"],"infoHash":"2a3a20e32f473b7e27265dc3d1c033f6ad1b3068","infoHashBuffer":{"type":"Buffer","data":[42,58,32,227,47,71,59,126,39,38,93,195,209,192,51,246,173,27,48,104]},"announce":[],"urlList":[]}}